<svg width="89" height="20" viewBox="0 0 89 20" fill="none" xmlns="http://www.w3.org/2000/svg">
<g clip-path="url(#clip0_2_2)">
<rect width="89" height="20" fill="white"/>
<path d="M9.07479 2.25583C9.41414 1.42845 10.5859 1.42845 10.9252 2.25583L12.6493 6.45955C12.793 6.80979 13.1221 7.04889 13.4995 7.07727L18.0303 7.41798C18.922 7.48504 19.2841 8.59942 18.6021 9.17783L15.1369 12.1166C14.8482 12.3614 14.7225 12.7483 14.8122 13.1161L15.8882 17.5304C16.1 18.3992 15.152 19.0879 14.3912 18.618L10.5255 16.2305C10.2034 16.0316 9.79661 16.0316 9.47454 16.2305L5.60881 18.618C4.84796 19.0879 3.90001 18.3992 4.1118 17.5304L5.18785 13.1161C5.2775 12.7483 5.1518 12.3614 4.86309 12.1166L1.3979 9.17783C0.715877 8.59942 1.07796 7.48504 1.96971 7.41798L6.50046 7.07727C6.87794 7.04889 7.20704 6.80979 7.35068 6.45955L9.07479 2.25583Z" stroke="black" stroke-width="2"/>
<path d="M32.0748 2.25583C32.4141 1.42845 33.5859 1.42845 33.9252 2.25583L35.6493 6.45955C35.793 6.80979 36.1221 7.04889 36.4995 7.07727L41.0303 7.41798C41.922 7.48504 42.2841 8.59942 41.6021 9.17783L38.1369 12.1166C37.8482 12.3614 37.7225 12.7483 37.8122 13.1161L38.8882 17.5304C39.1 18.3992 38.152 19.0879 37.3912 18.618L33.5255 16.2305C33.2034 16.0316 32.7966 16.0316 32.4745 16.2305L28.6088 18.618C27.848 19.0879 26.9 18.3992 27.1118 17.5304L28.1878 13.1161C28.2775 12.7483 28.1518 12.3614 27.8631 12.1166L24.3979 9.17783C23.7159 8.59942 24.078 7.48504 24.9697 7.41798L29.5005 7.07727C29.8779 7.04889 30.207 6.80979 30.3507 6.45955L32.0748 2.25583Z" stroke="black" stroke-width="2"/>
<path d="M55.0748 2.25583C55.4141 1.42845 56.5859 1.42845 56.9252 2.25583L58.6493 6.45955C58.793 6.80979 59.1221 7.04889 59.4995 7.07727L64.0303 7.41798C64.922 7.48504 65.2841 8.59942 64.6021 9.17783L61.1369 12.1166C60.8482 12.3614 60.7225 12.7483 60.8122 13.1161L61.8882 17.5304C62.1 18.3992 61.152 19.0879 60.3912 18.618L56.5255 16.2305C56.2034 16.0316 55.7966 16.0316 55.4745 16.2305L51.6088 18.618C50.848 19.0879 49.9 18.3992 50.1118 17.5304L51.1878 13.1161C51.2775 12.7483 51.1518 12.3614 50.8631 12.1166L47.3979 9.17783C46.7159 8.59942 47.078 7.48504 47.9697 7.41798L52.5005 7.07727C52.8779 7.04889 53.207 6.80979 53.3507 6.45955L55.0748 2.25583Z" stroke="black" stroke-width="2"/>
<path d="M78.0748 2.25583C78.4141 1.42845 79.5859 1.42845 79.9252 2.25583L81.6493 6.45955C81.793 6.80979 82.1221 7.04889 82.4995 7.07727L87.0303 7.41798C87.922 7.48504 88.2841 8.59942 87.6021 9.17783L84.1369 12.1166C83.8482 12.3614 83.7225 12.7483 83.8122 13.1161L84.8882 17.5304C85.1 18.3992 84.152 19.0879 83.3912 18.618L79.5255 16.2305C79.2034 16.0316 78.7966 16.0316 78.4745 16.2305L74.6088 18.618C73.848 19.0879 72.9 18.3992 73.1118 17.5304L74.1878 13.1161C74.2775 12.7483 74.1518 12.3614 73.8631 12.1166L70.3979 9.17783C69.7159 8.59942 70.078 7.48504 70.9697 7.41798L75.5005 7.07727C75.8779 7.04889 76.207 6.80979 76.3507 6.45955L78.0748 2.25583Z" stroke="black" stroke-width="2"/>
</g>
<defs>
<clipPath id="clip0_2_2">
<rect width="89" height="20" fill="white"/>
</clipPath>
</defs>
</svg>
